<?xml version="1.0" encoding="utf-8"?>
<!-- Generator: Adobe Illustrator 16.0.0, SVG Export Plug-In . SVG Version: 6.00 Build 0)  -->
<!DOCTYPE svg PUBLIC "-//W3C//DTD SVG 1.1//EN" "http://www.w3.org/Graphics/SVG/1.1/DTD/svg11.dtd">
<svg version="1.1" id="Layer_1" xmlns="http://www.w3.org/2000/svg" xmlns:xlink="http://www.w3.org/1999/xlink" x="0px" y="0px"
	 width="180.622px" height="102.545px" viewBox="0 0 180.622 102.545" enable-background="new 0 0 180.622 102.545"
	 xml:space="preserve">
<g id="Layer_1_1_">
</g>
<g>
	<path fill="#D7A727" d="M20.196,60.793l0.335,8.499c0,0-18.635-11.337-20.095-20.566c-1.459-9.229,1.208-13.822,1.208-13.822
		L20.196,60.793z"/>
	<path fill="#D7A727" d="M20.756,75.01l0.463,11.744c0,0-15.687-11.932-18.32-25.59C2.474,61.491,20.756,75.01,20.756,75.01z"/>
	<path fill="#D7A727" d="M32.792,79.565L32.792,79.565c0.494-10.797,1.426-23.658,1.426-23.658S14.475,7.623,15.473,0
		c-0.15,0.315-9.26,11.972-7.728,26.151c1.532,14.179,15.08,32.836,15.08,32.836s0.555,26.443,2.344,30.705
		c1.265,3.012,2.47,5.484,8.974,9.824C31.651,88.776,32.792,79.565,32.792,79.565z"/>
</g>
<g>
	<path fill="#D7A727" d="M160.424,61.86l-0.334,8.5c0,0,18.635-11.338,20.095-20.566c1.459-9.229-1.208-13.822-1.208-13.822
		L160.424,61.86z"/>
	<path fill="#D7A727" d="M159.866,76.078l-0.464,11.744c0,0,15.688-11.933,18.32-25.589
		C178.148,62.56,159.866,76.078,159.866,76.078z"/>
	<path fill="#D7A727" d="M147.831,80.635L147.831,80.635c-0.494-10.797-1.427-23.659-1.427-23.659s19.742-48.284,18.745-55.907
		c0.15,0.316,9.26,11.973,7.729,26.151c-1.531,14.179-15.08,32.838-15.08,32.838s-0.555,26.441-2.344,30.705
		c-1.267,3.01-2.471,5.483-8.976,9.823C148.97,89.847,147.831,80.635,147.831,80.635z"/>
</g>
<g>
	<path fill="#C8982C" d="M40.902,20.178h3.335l1.59,4.484l2.817-4.484h3.335L46.9,26.981l3.239,7.647h-3.277l-2.07-5.29l-3.603,5.29
		h-3.296l5.826-7.647L40.902,20.178z"/>
	<path fill="#C8982C" d="M62.369,24.011c-0.633-0.958-1.744-1.533-2.952-1.533c-2.702,0-4.638,2.491-5.041,4.982
		c-0.383,2.434,0.843,4.868,3.469,4.868c1.208,0,2.511-0.632,3.45-1.533l-0.537,3.354c-1.13,0.498-2.242,0.862-3.411,0.862
		c-4.063,0-6.516-3.507-5.884-7.494c0.652-4.101,4.121-7.724,8.356-7.724c1.131,0,2.185,0.307,3.085,0.844L62.369,24.011z"/>
	<path fill="#C8982C" d="M76.284,33.171c-1.36,1.035-2.798,1.84-4.427,1.84c-2.434,0-3.948-1.782-3.565-4.216
		c0.25-1.61,1.227-2.875,2.683-3.756l0.958-0.594c-0.537-0.939-0.882-1.897-0.69-3.066c0.345-2.146,2.185-3.584,4.254-3.584
		c2.089,0,3.469,1.399,3.124,3.565c-0.249,1.591-1.572,2.683-2.932,3.488l1.61,2.587l1.744-1.859l1.533,1.667l-1.897,2.089
		l1.974,3.296h-3.431L76.284,33.171z M73.16,28.227c-0.863,0.575-1.84,1.265-1.993,2.319c-0.153,0.92,0.46,1.936,1.418,1.936
		c0.882,0,1.648-0.671,2.338-1.246L73.16,28.227z M74.655,25.199l0.537-0.402c0.575-0.422,0.958-0.882,1.054-1.572
		c0.115-0.671-0.153-1.418-0.901-1.418c-0.767,0-1.284,0.651-1.399,1.341c-0.058,0.383,0,0.748,0.172,1.073L74.655,25.199z"/>
	<path fill="#C8982C" d="M91.771,34.628h-2.817l1.897-11.997h-2.913l0.383-2.453h8.645l-0.385,2.453h-2.912L91.771,34.628z"/>
	<path fill="#C8982C" d="M105.495,34.628h-3.412l-2.586-5.826h-0.039l-0.92,5.826H95.72L98,20.178h3.813
		c2.855,0,4.639,1.265,4.141,4.35c-0.287,1.84-1.592,3.68-3.584,4.005L105.495,34.628z M99.763,26.828h0.364
		c1.553,0,2.722-0.46,3.009-2.223c0.288-1.782-0.806-2.127-2.3-2.127h-0.383L99.763,26.828z"/>
	<path fill="#C8982C" d="M109.845,31.581l-1.667,3.047h-2.971l7.992-14.834h2.184l3.125,14.834H115.5l-0.633-3.047H109.845z
		 M113.488,24.03h-0.038l-2.435,5.251h3.43L113.488,24.03z"/>
	<path fill="#C8982C" d="M130.717,24.011c-0.633-0.958-1.743-1.533-2.95-1.533c-2.703,0-4.64,2.491-5.041,4.982
		c-0.384,2.434,0.844,4.868,3.469,4.868c1.207,0,2.511-0.632,3.45-1.533l-0.537,3.354c-1.13,0.498-2.242,0.862-3.411,0.862
		c-4.063,0-6.516-3.507-5.884-7.494c0.65-4.101,4.12-7.724,8.355-7.724c1.131,0,2.186,0.307,3.086,0.844L130.717,24.011z"/>
	<path fill="#C8982C" d="M140.495,20.178h3.469l-6.535,6.669l4.561,7.781h-3.621l-3.584-6.497h-0.039l-1.035,6.497h-2.815
		l2.28-14.45h2.816l-0.957,6.094h0.037L140.495,20.178z"/>
</g>
<g>
	<path fill="#C8982C" d="M43.053,38.325h8.299c8.615,0,13.397,5.765,12.054,13.369c-1.344,7.498-8.299,13.3-16.796,13.3h-8.26
		L43.053,38.325z M44.95,60.467h0.949c7.153,0,10.552-3.536,11.5-8.807c1.028-5.802-1.778-8.808-8.378-8.808h-0.949L44.95,60.467z"
		/>
	<path fill="#C8982C" d="M70.958,59.37l-3.438,5.624h-6.125l16.479-27.376h4.505l6.442,27.376h-6.205l-1.304-5.624H70.958z
		 M78.467,45.435h-0.079l-5.019,9.691h7.074L78.467,45.435z"/>
	<path fill="#C8982C" d="M98.111,56.293h0.079l9.803-17.968h6.243L97.834,65.701h-3.399l-6.56-27.376h6.245L98.111,56.293z"/>
	<path fill="#C8982C" d="M116.924,64.994h-5.809l4.702-26.669h5.81L116.924,64.994z"/>
	<path fill="#C8982C" d="M138.861,44.197c-0.87-1.345-2.135-2.193-4.071-2.193c-1.856,0-3.873,1.272-4.188,3.006
		c-0.791,4.492,11.381,2.617,9.801,11.566c-0.949,5.341-5.336,9.125-11.422,9.125c-4.109,0-6.758-2.122-8.26-5.199l4.348-3.289
		c0.436,2.052,2.174,3.892,4.663,3.892c2.371,0,4.188-1.805,4.545-3.855c0.474-2.759-2.214-3.537-4.427-4.352
		c-3.557-1.414-6.086-3.146-5.335-7.285c0.79-4.422,5.099-7.994,10.116-7.994c2.647,0,6.088,1.167,7.588,2.971L138.861,44.197z"/>
</g>
<g>
	<g>
		<path fill="#C8982C" d="M80.265,73.215c-0.633-0.958-1.744-1.532-2.952-1.532c-2.702,0-4.638,2.491-5.041,4.982
			c-0.383,2.434,0.843,4.868,3.469,4.868c1.208,0,2.511-0.634,3.45-1.533l-0.537,3.354c-1.13,0.498-2.242,0.861-3.411,0.861
			c-4.063,0-6.516-3.507-5.884-7.492c0.652-4.103,4.121-7.725,8.356-7.725c1.131,0,2.185,0.307,3.085,0.843L80.265,73.215z"/>
		<path fill="#C8982C" d="M83.639,81.379h3.986l-0.383,2.453h-6.803l2.28-14.45h2.817L83.639,81.379z"/>
		<path fill="#C8982C" d="M90.348,69.382h2.818L91.9,77.47c-0.287,1.782-0.536,4.293,1.858,4.293c2.396,0,2.951-2.511,3.238-4.293
			l1.267-8.088h2.815l-1.359,8.645c-0.557,3.525-2.473,6.189-6.344,6.189c-3.872,0-4.944-2.664-4.39-6.189L90.348,69.382z"/>
		<path fill="#C8982C" d="M103.075,69.382h3.508c2.684,0,4.179,1.055,3.719,3.93c-0.174,1.035-0.709,2.224-1.706,2.799
			c1.647,0.307,2.146,2.031,1.897,3.621c-0.461,2.836-2.646,4.102-5.271,4.102h-4.428L103.075,69.382z M103.976,81.571h0.594
			c1.515,0,2.836-0.192,3.144-2.07c0.287-1.878-1.228-1.954-2.646-1.954h-0.46L103.976,81.571z M104.954,75.399h0.346
			c1.379,0,2.107-0.401,2.338-1.897c0.249-1.476-0.537-1.858-1.725-1.858h-0.365L104.954,75.399z"/>
	</g>
</g>
<rect x="38.042" y="75.591" fill="#C8982C" width="26.928" height="2.829"/>
<rect x="115.193" y="75.591" fill="#C8982C" width="26.929" height="2.829"/>
</svg>
