<?xml version="1.0" encoding="utf-8"?>
<!-- Generator: Adobe Illustrator 16.0.0, SVG Export Plug-In . SVG Version: 6.00 Build 0)  -->
<!DOCTYPE svg PUBLIC "-//W3C//DTD SVG 1.1 Tiny//EN" "http://www.w3.org/Graphics/SVG/1.1/DTD/svg11-tiny.dtd">
<svg version="1.1" baseProfile="tiny" xmlns="http://www.w3.org/2000/svg" xmlns:xlink="http://www.w3.org/1999/xlink" x="0px"
	 y="0px" width="124.577px" height="11.816px" viewBox="0 0 124.577 11.816" xml:space="preserve">
<g id="Layer_1">
</g>
<g id="svg2">
	<g>
		<path id="path2998_1_" fill="#949494" d="M8.861,4.173H4.655v1.248h2.982C7.49,7.171,6.035,7.917,4.66,7.917
			c-1.758,0-3.292-1.383-3.292-3.323c0-1.889,1.462-3.343,3.296-3.343c1.415,0,2.249,0.901,2.249,0.901l0.874-0.904
			c0,0-1.122-1.249-3.167-1.249C2.014,0,0,2.198,0,4.572c0,2.327,1.896,4.595,4.686,4.595c2.454,0,4.251-1.682,4.251-4.167
			C8.937,4.476,8.861,4.172,8.861,4.173L8.861,4.173z"/>
		<path id="path3000_1_" fill="#949494" d="M12.305,3.269c-1.726,0-2.962,1.349-2.962,2.923c0,1.597,1.199,2.97,2.982,2.97
			c1.614,0,2.936-1.232,2.936-2.936C15.262,4.274,13.724,3.269,12.305,3.269L12.305,3.269z M12.323,4.427
			c0.848,0,1.653,0.686,1.653,1.791c0,1.082-0.801,1.788-1.657,1.788c-0.94,0-1.683-0.752-1.683-1.796
			C10.636,5.188,11.369,4.427,12.323,4.427L12.323,4.427z"/>
		<path id="path3005_1_" fill="#949494" d="M18.747,3.269c-1.726,0-2.962,1.349-2.962,2.923c0,1.597,1.199,2.97,2.983,2.97
			c1.613,0,2.937-1.232,2.937-2.936C21.705,4.274,20.166,3.269,18.747,3.269L18.747,3.269z M18.765,4.427
			c0.848,0,1.652,0.686,1.652,1.791c0,1.082-0.801,1.788-1.657,1.788c-0.939,0-1.682-0.752-1.682-1.796
			C17.079,5.188,17.811,4.427,18.765,4.427L18.765,4.427z"/>
		<path id="path3007_1_" fill="#949494" d="M25.066,3.273c-1.583,0-2.828,1.387-2.828,2.944c0,1.773,1.443,2.948,2.801,2.948
			c0.839,0,1.286-0.332,1.616-0.716v0.581c0,1.018-0.618,1.626-1.549,1.626c-0.899,0-1.351-0.669-1.508-1.049l-1.132,0.474
			c0.402,0.85,1.21,1.734,2.65,1.734c1.574,0,2.774-0.992,2.774-3.071V3.449h-1.235v0.5C26.275,3.539,25.755,3.273,25.066,3.273
			L25.066,3.273z M25.181,4.428c0.776,0,1.573,0.663,1.573,1.795c0,1.151-0.794,1.786-1.591,1.786c-0.844,0-1.63-0.686-1.63-1.775
			C23.533,5.103,24.35,4.428,25.181,4.428L25.181,4.428z"/>
		<path id="path3011_1_" fill="#949494" d="M33.383,3.265c-1.494,0-2.748,1.189-2.748,2.943c0,1.856,1.398,2.957,2.892,2.957
			c1.246,0,2.012-0.682,2.469-1.293l-1.019-0.678c-0.264,0.411-0.707,0.812-1.443,0.812c-0.829,0-1.209-0.454-1.446-0.894
			l3.951-1.639l-0.205-0.481C35.452,4.051,34.562,3.266,33.383,3.265L33.383,3.265z M33.435,4.398c0.539,0,0.926,0.286,1.09,0.629
			l-2.638,1.103C31.772,5.276,32.583,4.398,33.435,4.398z"/>
		<path id="path3015_1_" fill="#949494" d="M28.751,8.99h1.297V0.305h-1.297V8.99z"/>
	</g>
	<g>
		<path fill="#949494" d="M42.305,1.485h1.293c1.029,0,1.868,0.137,2.678,0.829c0.783,0.674,1.139,1.594,1.139,2.614
			c0,1.002-0.364,1.886-1.121,2.56c-0.82,0.729-1.64,0.866-2.714,0.866h-1.275V1.485z M43.625,7.643c0.838,0,1.54-0.119,2.168-0.71
			c0.565-0.528,0.856-1.248,0.856-2.013c0-0.784-0.301-1.54-0.893-2.059c-0.629-0.556-1.321-0.665-2.132-0.665H43.07v5.448H43.625z"
			/>
		<path fill="#949494" d="M52.386,8.354h-0.729V7.761H51.64c-0.374,0.474-0.875,0.711-1.476,0.711c-1.257,0-2.049-1.066-2.049-2.25
			c0-1.221,0.774-2.268,2.059-2.268c0.583,0,1.111,0.273,1.467,0.729h0.018v-0.61h0.729V8.354z M48.861,6.167
			c0,0.838,0.492,1.631,1.403,1.631c0.938,0,1.431-0.756,1.431-1.622c0-0.856-0.538-1.548-1.439-1.548
			C49.408,4.628,48.861,5.366,48.861,6.167z"/>
		<path fill="#949494" d="M55.153,6.951l1.275-2.878h0.82l-2.095,4.564l-2.104-4.564h0.829L55.153,6.951z"/>
		<path fill="#949494" d="M58.969,2.459c0,0.292-0.237,0.52-0.519,0.52s-0.519-0.228-0.519-0.52c0-0.282,0.237-0.519,0.519-0.519
			S58.969,2.177,58.969,2.459z M58.814,8.354h-0.729V4.072h0.729V8.354z"/>
		<path fill="#949494" d="M62.065,5.065c-0.101-0.228-0.319-0.437-0.583-0.437c-0.255,0-0.528,0.2-0.528,0.474
			c0,0.392,0.492,0.537,0.993,0.747c0.501,0.209,0.993,0.51,0.993,1.229c0,0.811-0.656,1.394-1.449,1.394
			c-0.72,0-1.284-0.41-1.512-1.084l0.647-0.273c0.182,0.401,0.392,0.683,0.875,0.683c0.392,0,0.692-0.264,0.692-0.656
			c0-0.957-1.931-0.629-1.931-1.977c0-0.72,0.583-1.211,1.275-1.211c0.492,0,0.947,0.346,1.139,0.792L62.065,5.065z"/>
		<path fill="#949494" d="M72.01,2.988c-0.546-0.564-1.303-0.911-2.095-0.911c-1.53,0-2.769,1.33-2.769,2.842
			s1.248,2.842,2.788,2.842c0.774,0,1.53-0.364,2.077-0.911v0.947c-0.592,0.428-1.321,0.674-2.049,0.674
			c-1.94,0-3.58-1.576-3.58-3.525c0-1.968,1.612-3.58,3.58-3.58c0.765,0,1.439,0.218,2.049,0.674V2.988z"/>
		<path fill="#949494" d="M73.975,6.459c0,0.719,0.082,1.339,0.966,1.339s0.966-0.62,0.966-1.339V4.072h0.729v2.468
			c0,1.139-0.428,1.932-1.694,1.932s-1.694-0.793-1.694-1.932V4.072h0.729V6.459z"/>
		<path fill="#949494" d="M79.694,5.065c-0.101-0.228-0.319-0.437-0.583-0.437c-0.255,0-0.528,0.2-0.528,0.474
			c0,0.392,0.492,0.537,0.993,0.747c0.501,0.209,0.993,0.51,0.993,1.229c0,0.811-0.656,1.394-1.449,1.394
			c-0.72,0-1.284-0.41-1.512-1.084l0.647-0.273c0.182,0.401,0.392,0.683,0.875,0.683c0.392,0,0.692-0.264,0.692-0.656
			c0-0.957-1.931-0.629-1.931-1.977c0-0.72,0.583-1.211,1.275-1.211c0.492,0,0.947,0.346,1.139,0.792L79.694,5.065z"/>
		<path fill="#949494" d="M82.361,8.354h-0.729V4.746h-0.447V4.072h0.447v-1.54h0.729v1.54h0.765v0.674h-0.765V8.354z"/>
		<path fill="#949494" d="M83.399,6.222c0-1.257,0.993-2.268,2.25-2.268c1.257,0,2.25,1.011,2.25,2.268
			c0,1.257-1.002,2.25-2.25,2.25C84.401,8.472,83.399,7.479,83.399,6.222z M84.128,6.213c0,0.875,0.619,1.585,1.521,1.585
			s1.521-0.71,1.521-1.585c0-0.866-0.62-1.585-1.521-1.585S84.128,5.347,84.128,6.213z"/>
		<path fill="#949494" d="M89.628,4.537h0.019c0.228-0.355,0.592-0.583,1.029-0.583c0.501,0,0.957,0.264,1.184,0.71
			c0.255-0.474,0.765-0.71,1.285-0.71c1.093,0,1.366,0.893,1.366,1.794v2.606h-0.729V5.867c0-0.556-0.037-1.239-0.783-1.239
			c-0.838,0-0.93,0.811-0.93,1.458v2.269h-0.729V5.921c0-0.528-0.064-1.293-0.765-1.293c-0.856,0-0.948,0.865-0.948,1.512v2.214
			h-0.729V4.072h0.729V4.537z"/>
		<path fill="#949494" d="M101.813,2.824c-0.273-0.474-0.601-0.747-1.185-0.747c-0.609,0-1.139,0.437-1.139,1.066
			c0,0.592,0.61,0.865,1.075,1.075l0.456,0.2c0.893,0.392,1.648,0.838,1.648,1.932c0,1.202-0.966,2.123-2.159,2.123
			c-1.102,0-1.922-0.711-2.141-1.776l0.747-0.21c0.101,0.702,0.638,1.275,1.376,1.275c0.737,0,1.411-0.564,1.411-1.339
			c0-0.802-0.628-1.075-1.266-1.367l-0.419-0.182c-0.802-0.364-1.494-0.774-1.494-1.758c0-1.066,0.901-1.749,1.922-1.749
			c0.766,0,1.412,0.392,1.776,1.065L101.813,2.824z"/>
		<path fill="#949494" d="M104.151,6.368c0.009,0.792,0.574,1.43,1.403,1.43c0.619,0,1.02-0.374,1.303-0.884l0.619,0.355
			c-0.41,0.765-1.103,1.203-1.977,1.203c-1.275,0-2.096-0.975-2.096-2.205c0-1.267,0.738-2.314,2.077-2.314
			c1.376,0,2.104,1.139,2.031,2.414H104.151z M106.748,5.748c-0.101-0.619-0.62-1.12-1.258-1.12c-0.628,0-1.211,0.501-1.303,1.12
			H106.748z"/>
		<path fill="#949494" d="M112.422,8.354h-0.729V7.761h-0.018c-0.374,0.474-0.875,0.711-1.476,0.711c-1.258,0-2.05-1.066-2.05-2.25
			c0-1.221,0.774-2.268,2.059-2.268c0.583,0,1.111,0.273,1.467,0.729h0.018v-0.61h0.729V8.354z M108.896,6.167
			c0,0.838,0.491,1.631,1.402,1.631c0.938,0,1.431-0.756,1.431-1.622c0-0.856-0.538-1.548-1.439-1.548
			C109.442,4.628,108.896,5.366,108.896,6.167z"/>
		<path fill="#949494" d="M114.46,4.537h0.019c0.255-0.337,0.474-0.583,0.947-0.583c0.246,0,0.446,0.082,0.655,0.2l-0.346,0.665
			c-0.146-0.1-0.246-0.191-0.438-0.191c-0.802,0-0.838,1.029-0.838,1.585v2.141h-0.729V4.072h0.729V4.537z"/>
		<path fill="#949494" d="M119.996,5.347h-0.018c-0.337-0.428-0.756-0.719-1.33-0.719c-0.884,0-1.513,0.729-1.513,1.585
			c0,0.847,0.583,1.585,1.477,1.585c0.61,0,1.038-0.273,1.394-0.738h0.018v0.975c-0.419,0.282-0.847,0.438-1.356,0.438
			c-1.294,0-2.277-0.966-2.277-2.259c0-1.275,1.029-2.259,2.286-2.259c0.465,0,0.938,0.155,1.32,0.428V5.347z"/>
		<path fill="#949494" d="M121.881,0.838v3.735l0.019,0.018c0.301-0.41,0.692-0.638,1.221-0.638c1.184,0,1.457,0.856,1.457,1.858
			v2.542h-0.729V5.939c0-0.692-0.055-1.312-0.901-1.312c-1.003,0-1.066,0.929-1.066,1.694v2.032h-0.729V0.838H121.881z"/>
	</g>
</g>
</svg>
