<?xml version="1.0" encoding="utf-8"?>
<!-- Generator: Adobe Illustrator 16.0.0, SVG Export Plug-In . SVG Version: 6.00 Build 0)  -->
<!DOCTYPE svg PUBLIC "-//W3C//DTD SVG 1.1//EN" "http://www.w3.org/Graphics/SVG/1.1/DTD/svg11.dtd">
<svg version="1.1" id="Layer_1" xmlns="http://www.w3.org/2000/svg" xmlns:xlink="http://www.w3.org/1999/xlink" x="0px" y="0px"
	 width="1440.864px" height="738.945px" viewBox="0 0 1440.864 738.945" enable-background="new 0 0 1440.864 738.945"
	 xml:space="preserve">
<g id="Capa_1">
	<path fill="#162A53" d="M1440.866,739.133L805.543,31.774c-17.557-19.545-49.998-31.587-85.111-31.587
		c-35.108,0-67.553,12.042-85.11,31.587L0,739.133H1440.866z"/>
	<path fill="#FFD33E" d="M569.202,739.133L713.411,587.85c3.422-3.547,10.611-3.547,14.057,0l144.23,151.283H1027.1
		c-0.322-0.764-0.777-1.492-1.4-2.139L727.465,424.229c-3.42-3.543-10.611-3.543-14.057,0L415.152,736.994
		c-0.617,0.646-1.069,1.377-1.391,2.139H569.202L569.202,739.133z"/>
</g>
<g id="Layer_1_1_">
</g>
</svg>
