<?xml version="1.0" encoding="utf-8"?>
<!-- Generator: Adobe Illustrator 16.0.0, SVG Export Plug-In . SVG Version: 6.00 Build 0)  -->
<!DOCTYPE svg PUBLIC "-//W3C//DTD SVG 1.1//EN" "http://www.w3.org/Graphics/SVG/1.1/DTD/svg11.dtd">
<svg version="1.1" id="Capa_1" xmlns="http://www.w3.org/2000/svg" xmlns:xlink="http://www.w3.org/1999/xlink" x="0px" y="0px"
	 width="1440.864px" height="738.945px" viewBox="0 0 1440.864 738.945" enable-background="new 0 0 1440.864 738.945"
	 xml:space="preserve">
<path fill="#162A53" d="M1440.864,739.18L805.542,31.822c-17.555-19.546-49.998-31.588-85.11-31.588
	c-35.107,0-67.553,12.042-85.109,31.588L0,739.18H1440.864z"/>
<path fill="#C7972C" d="M569.201,739.008L713.41,587.725c3.421-3.547,10.61-3.547,14.055,0l144.232,151.283H1027.1
	c-0.322-0.765-0.777-1.492-1.4-2.14L727.463,424.104c-3.42-3.543-10.61-3.543-14.055,0L415.151,736.869
	c-0.617,0.646-1.07,1.377-1.392,2.14L569.201,739.008L569.201,739.008z"/>
</svg>
