<?xml version="1.0" encoding="utf-8"?>
<!-- Generator: Adobe Illustrator 16.0.0, SVG Export Plug-In . SVG Version: 6.00 Build 0)  -->
<!DOCTYPE svg PUBLIC "-//W3C//DTD SVG 1.1//EN" "http://www.w3.org/Graphics/SVG/1.1/DTD/svg11.dtd">
<svg version="1.1" xmlns="http://www.w3.org/2000/svg" xmlns:xlink="http://www.w3.org/1999/xlink" x="0px" y="0px"
	 width="1440.864px" height="738.945px" viewBox="-0.432 300.381 1440.864 738.945"
	 enable-background="new -0.432 300.381 1440.864 738.945" xml:space="preserve">
<g id="Capa_1">
	<path fill="#162A53" d="M1440.432,1039.326L805.109,331.968c-17.555-19.545-49.998-31.587-85.11-31.587
		c-35.108,0-67.553,12.042-85.11,31.587L-0.433,1039.326H1440.432z"/>
	<path fill="#FFD33E" d="M568.769,1039.326l144.209-151.283c3.421-3.547,10.61-3.547,14.055,0l144.232,151.283h155.402
		c-0.322-0.764-0.777-1.492-1.4-2.139L727.031,724.423c-3.42-3.543-10.61-3.543-14.055,0l-298.257,312.764
		c-0.617,0.646-1.07,1.377-1.391,2.139H568.769L568.769,1039.326z"/>
</g>
<g id="Layer_1">
</g>
</svg>
