<?xml version="1.0" encoding="utf-8"?>
<!-- Generator: Adobe Illustrator 16.0.0, SVG Export Plug-In . SVG Version: 6.00 Build 0)  -->
<!DOCTYPE svg PUBLIC "-//W3C//DTD SVG 1.1//EN" "http://www.w3.org/Graphics/SVG/1.1/DTD/svg11.dtd">
<svg version="1.1" id="Capa_1" xmlns="http://www.w3.org/2000/svg" xmlns:xlink="http://www.w3.org/1999/xlink" x="0px" y="0px"
	 width="1440.864px" height="738.945px" viewBox="0 0 1440.864 738.945" enable-background="new 0 0 1440.864 738.945"
	 xml:space="preserve">
<path fill="#162A53" d="M1440.864,738.945L805.542,31.588C787.987,12.042,755.543,0,720.432,0c-35.108,0-67.553,12.042-85.11,31.588
	L0,738.945H1440.864z"/>
<path fill="#C7972C" d="M569.201,738.945L713.41,587.662c3.421-3.547,10.61-3.547,14.055,0l144.232,151.283H1027.1
	c-0.322-0.764-0.777-1.492-1.4-2.139L727.463,424.042c-3.42-3.543-10.61-3.543-14.055,0L415.151,736.807
	c-0.617,0.646-1.07,1.377-1.391,2.139H569.201L569.201,738.945z"/>
</svg>
