<?xml version="1.0" encoding="utf-8"?>
<!-- Generator: Adobe Illustrator 16.0.0, SVG Export Plug-In . SVG Version: 6.00 Build 0)  -->
<!DOCTYPE svg PUBLIC "-//W3C//DTD SVG 1.1//EN" "http://www.w3.org/Graphics/SVG/1.1/DTD/svg11.dtd">
<svg version="1.1" id="Layer_1" xmlns="http://www.w3.org/2000/svg" xmlns:xlink="http://www.w3.org/1999/xlink" x="0px" y="0px"
	 width="145.5px" height="41px" viewBox="0 0 145.5 41" enable-background="new 0 0 145.5 41" xml:space="preserve">
<g>
	<path fill="#C8982C" d="M60.542,23.016l-0.744,1.907h-1.859l3.526-9.283h1.367l3.43,9.283H64.38l-0.696-1.907H60.542z
		 M62.065,18.29h-0.024l-0.995,3.287h2.146L62.065,18.29z"/>
	<path fill="#C8982C" d="M66.807,15.88h2.195c1.679,0,2.71,0.659,2.71,2.459c0,0.647-0.228,1.391-0.792,1.751
		c1.067,0.191,1.547,1.271,1.547,2.268c0,1.773-1.248,2.565-2.891,2.565h-2.771V15.88H66.807z M68.57,19.646h0.216
		c0.864,0,1.283-0.252,1.283-1.188c0-0.923-0.527-1.163-1.271-1.163H68.57V19.646z M68.57,23.508h0.372
		c0.948,0,1.763-0.119,1.763-1.296c0-1.175-0.959-1.223-1.847-1.223H68.57V23.508z"/>
	<path fill="#C8982C" d="M77.484,25.163c-2.758,0-4.473-2.111-4.473-4.773c0-2.687,1.775-4.75,4.473-4.75
		c2.699,0,4.475,2.063,4.475,4.75C81.958,23.052,80.244,25.163,77.484,25.163z M77.484,17.379c-1.666,0-2.649,1.476-2.649,2.938
		c0,1.392,0.694,3.106,2.649,3.106s2.649-1.715,2.649-3.106C80.135,18.854,79.152,17.379,77.484,17.379z"/>
	<path fill="#C8982C" d="M82.779,15.88h1.764v5.062c0,1.115,0.096,2.687,1.596,2.687c1.498,0,1.594-1.57,1.594-2.687V15.88h1.766
		v5.409c0,2.207-0.938,3.874-3.357,3.874c-2.422,0-3.357-1.667-3.357-3.874V15.88H82.779z"/>
	<path fill="#C8982C" d="M93.686,24.923h-1.765v-7.508H90.1V15.88h5.408v1.535h-1.822V24.923z"/>
</g>
<path fill="none" stroke="#C8982C" stroke-width="3" stroke-miterlimit="10" d="M144.303,32.482c0,3.917-4.699,7.09-10.496,7.09
	H12.216c-5.796,0-10.496-3.173-10.496-7.09V8.56c0-3.916,4.7-7.089,10.496-7.089h121.59c5.797,0,10.496,3.173,10.496,7.089V32.482z"
	/>
</svg>
