<?xml version="1.0" encoding="utf-8"?>
<!-- Generator: Adobe Illustrator 16.0.0, SVG Export Plug-In . SVG Version: 6.00 Build 0)  -->
<!DOCTYPE svg PUBLIC "-//W3C//DTD SVG 1.1//EN" "http://www.w3.org/Graphics/SVG/1.1/DTD/svg11.dtd">
<svg version="1.1" id="Layer_1" xmlns="http://www.w3.org/2000/svg" xmlns:xlink="http://www.w3.org/1999/xlink" x="0px" y="0px"
	 width="145.5px" height="41px" viewBox="0 0 145.5 41" enable-background="new 0 0 145.5 41" xml:space="preserve">
<rect x="1.5" y="1.5" fill="none" stroke="#21437A" stroke-width="3" stroke-miterlimit="10" width="142.5" height="38"/>
<g>
	<path fill="#C8982C" d="M60.542,23.016l-0.744,1.907h-1.859l3.526-9.283h1.367l3.43,9.283H64.38l-0.696-1.907H60.542z
		 M62.065,18.29h-0.024l-0.995,3.287h2.146L62.065,18.29z"/>
	<path fill="#C8982C" d="M66.807,15.88h2.195c1.679,0,2.71,0.659,2.71,2.459c0,0.647-0.228,1.391-0.792,1.751
		c1.067,0.191,1.547,1.271,1.547,2.267c0,1.774-1.248,2.566-2.891,2.566h-2.771V15.88z M68.57,19.646h0.216
		c0.864,0,1.283-0.252,1.283-1.188c0-0.923-0.527-1.163-1.271-1.163H68.57V19.646z M68.57,23.508h0.372
		c0.948,0,1.763-0.12,1.763-1.296c0-1.175-0.959-1.223-1.847-1.223H68.57V23.508z"/>
	<path fill="#C8982C" d="M77.485,25.163c-2.759,0-4.474-2.111-4.474-4.773c0-2.687,1.775-4.75,4.474-4.75s4.474,2.063,4.474,4.75
		C81.958,23.052,80.244,25.163,77.485,25.163z M77.485,17.379c-1.667,0-2.65,1.476-2.65,2.938c0,1.392,0.695,3.106,2.65,3.106
		s2.65-1.715,2.65-3.106C80.135,18.854,79.152,17.379,77.485,17.379z"/>
	<path fill="#C8982C" d="M82.779,15.88h1.764v5.062c0,1.115,0.096,2.687,1.595,2.687s1.595-1.571,1.595-2.687V15.88h1.764v5.409
		c0,2.207-0.936,3.874-3.358,3.874s-3.358-1.667-3.358-3.874V15.88z"/>
	<path fill="#C8982C" d="M93.685,24.923h-1.764v-7.508h-1.822V15.88h5.409v1.535h-1.823V24.923z"/>
</g>
</svg>
