<?xml version="1.0" encoding="utf-8"?>
<!-- Generator: Adobe Illustrator 16.0.0, SVG Export Plug-In . SVG Version: 6.00 Build 0)  -->
<!DOCTYPE svg PUBLIC "-//W3C//DTD SVG 1.1//EN" "http://www.w3.org/Graphics/SVG/1.1/DTD/svg11.dtd">
<svg version="1.1" id="Layer_1" xmlns="http://www.w3.org/2000/svg" xmlns:xlink="http://www.w3.org/1999/xlink" x="0px" y="0px"
	 width="145.5px" height="41px" viewBox="0 0 145.5 41" enable-background="new 0 0 145.5 41" xml:space="preserve">
<g>
	<path fill="#C8982C" d="M45.103,18.277c-0.492-0.6-1.235-0.959-1.991-0.959c-1.691,0-2.663,1.559-2.663,3.118
		c0,1.523,1.007,3.046,2.65,3.046c0.755,0,1.511-0.396,2.003-0.959v2.099c-0.66,0.312-1.319,0.54-2.051,0.54
		c-2.543,0-4.426-2.195-4.426-4.689c0-2.567,1.811-4.834,4.461-4.834c0.708,0,1.403,0.192,2.015,0.528V18.277z"/>
	<path fill="#C8982C" d="M50.312,25.162c-2.758,0-4.474-2.111-4.474-4.773c0-2.687,1.775-4.75,4.474-4.75s4.474,2.063,4.474,4.75
		C54.785,23.051,53.07,25.162,50.312,25.162z M50.312,17.378c-1.667,0-2.65,1.476-2.65,2.938c0,1.392,0.695,3.106,2.65,3.106
		s2.65-1.715,2.65-3.106C52.962,18.854,51.979,17.378,50.312,17.378z"/>
	<path fill="#C8982C" d="M55.654,15.639h1.271l4.761,6.321h0.024v-6.081h1.763v9.223h-1.271l-4.762-6.32h-0.024v6.141h-1.763V15.639
		z"/>
	<path fill="#C8982C" d="M67.7,24.922h-1.763v-7.508h-1.823v-1.535h5.409v1.535H67.7V24.922z"/>
	<path fill="#C8982C" d="M71.061,23.015l-0.744,1.907h-1.859l3.526-9.283h1.367l3.43,9.283h-1.883l-0.695-1.907H71.061z
		 M72.583,18.289H72.56l-0.995,3.287h2.146L72.583,18.289z"/>
	<path fill="#C8982C" d="M83.371,18.277c-0.492-0.6-1.236-0.959-1.991-0.959c-1.691,0-2.663,1.559-2.663,3.118
		c0,1.523,1.008,3.046,2.65,3.046c0.756,0,1.512-0.396,2.004-0.959v2.099c-0.66,0.312-1.32,0.54-2.051,0.54
		c-2.543,0-4.426-2.195-4.426-4.689c0-2.567,1.811-4.834,4.461-4.834c0.708,0,1.403,0.192,2.016,0.528V18.277z"/>
	<path fill="#C8982C" d="M87.476,24.922h-1.763v-7.508H83.89v-1.535h5.409v1.535h-1.823V24.922z"/>
	<path fill="#C8982C" d="M93.369,15.879h1.764v5.062c0,1.115,0.096,2.687,1.596,2.687c1.498,0,1.594-1.571,1.594-2.687v-5.062h1.764
		v5.409c0,2.207-0.936,3.874-3.357,3.874c-2.424,0-3.359-1.667-3.359-3.874V15.879z"/>
	<path fill="#C8982C" d="M105.595,17.87c-0.336-0.456-0.768-0.744-1.355-0.744c-0.564,0-1.104,0.432-1.104,1.02
		c0,1.523,3.586,0.888,3.586,3.922c0,1.812-1.127,3.095-2.975,3.095c-1.247,0-2.158-0.72-2.782-1.764l1.14-1.115
		c0.24,0.695,0.875,1.319,1.631,1.319c0.72,0,1.163-0.611,1.163-1.308c0-0.936-0.863-1.199-1.571-1.475
		c-1.163-0.479-2.015-1.067-2.015-2.471c0-1.499,1.116-2.711,2.639-2.711c0.804,0,1.919,0.396,2.471,1.008L105.595,17.87z"/>
</g>
<rect x="1.5" y="1.5" fill="none" stroke="#21437A" stroke-width="3" stroke-miterlimit="10" width="142.5" height="38"/>
</svg>
