<?xml version="1.0" encoding="utf-8"?>
<!-- Generator: Adobe Illustrator 16.0.0, SVG Export Plug-In . SVG Version: 6.00 Build 0)  -->
<!DOCTYPE svg PUBLIC "-//W3C//DTD SVG 1.1//EN" "http://www.w3.org/Graphics/SVG/1.1/DTD/svg11.dtd">
<svg version="1.1" id="Layer_1" xmlns="http://www.w3.org/2000/svg" xmlns:xlink="http://www.w3.org/1999/xlink" x="0px" y="0px"
	 width="152.666px" height="43.993px" viewBox="169.262 23.086 152.666 43.993"
	 enable-background="new 169.262 23.086 152.666 43.993" xml:space="preserve">
<path fill="#D7A727" d="M321.928,37.059c0-7.717-6.256-13.973-13.974-13.973H183.235c-7.719,0-13.974,6.256-13.974,13.973v16.045
	c0,7.718,6.255,13.976,13.974,13.976h124.719c7.718,0,13.974-6.258,13.974-13.976V37.059z"/>
<g transform="matrix(1.25,0,0,-1.25,-5.9169448,86.523103)">
	<g transform="matrix(1.6613986,0,0,1.6613986,-4.1890052,-4.9972634)">
		<g>
			<defs>
				<rect id="SVGID_1_" x="57.51" y="1.484" width="132.24" height="42.957"/>
			</defs>
			<clipPath id="SVGID_2_">
				<use xlink:href="#SVGID_1_"  overflow="visible"/>
			</clipPath>
			<g clip-path="url(#SVGID_2_)">
				<g transform="translate(32.4187,40.9816)">
					<path fill="#003087" d="M72.521-11.74c-0.679,0.774-1.906,1.106-3.476,1.106h-4.557c-0.321,0-0.594-0.234-0.645-0.551
						l-1.897-12.033c-0.038-0.237,0.145-0.451,0.387-0.451h2.812l0.707,4.481l-0.022-0.141c0.05,0.316,0.321,0.55,0.642,0.55h1.337
						c2.626,0,4.682,1.066,5.282,4.153c0.019,0.091,0.034,0.18,0.047,0.267C73.318-13.22,73.138-12.443,72.521-11.74"/>
				</g>
				<g transform="translate(117.3312,26.8632)">
					<path fill="#009CDE" d="M22.047-3.348c-0.171-1.129-1.034-1.129-1.868-1.129h-0.474l0.333,2.108
						c0.02,0.127,0.13,0.221,0.259,0.221h0.218c0.568,0,1.104,0,1.381-0.324C22.06-2.665,22.11-2.952,22.047-3.348 M21.685-0.402
						h-3.146c-0.215,0-0.398-0.157-0.432-0.37l-1.272-8.066C16.81-8.997,16.933-9.14,17.094-9.14h1.614
						c0.151,0,0.279,0.11,0.302,0.259l0.361,2.286c0.033,0.213,0.217,0.369,0.432,0.369h0.995c2.073,0,3.269,1.003,3.58,2.99
						c0.141,0.869,0.006,1.552-0.4,2.03C23.53-0.68,22.738-0.402,21.685-0.402"/>
				</g>
				<g transform="translate(62.0115,26.8632)">
					<path fill="#003087" d="M54.931-3.348c-0.172-1.129-1.034-1.129-1.868-1.129h-0.475l0.333,2.108
						c0.02,0.127,0.13,0.221,0.259,0.221h0.218c0.568,0,1.104,0,1.381-0.324C54.944-2.665,54.993-2.952,54.931-3.348 M54.568-0.402
						h-3.145c-0.216,0-0.398-0.157-0.433-0.37l-1.272-8.066c-0.025-0.159,0.098-0.303,0.259-0.303h1.502
						c0.215,0,0.398,0.157,0.432,0.369l0.344,2.176c0.033,0.213,0.217,0.369,0.432,0.369h0.995c2.071,0,3.268,1.003,3.58,2.99
						c0.141,0.869,0.006,1.552-0.401,2.03C56.413-0.68,55.621-0.402,54.568-0.402"/>
				</g>
				<g transform="translate(79.1228,19.7234)">
					<path fill="#003087" d="M44.76,0.896c-0.146-0.861-0.829-1.438-1.701-1.438c-0.436,0-0.786,0.14-1.011,0.407
						c-0.222,0.263-0.307,0.639-0.236,1.058c0.135,0.853,0.83,1.449,1.688,1.449c0.428,0,0.775-0.142,1.004-0.411
						C44.735,1.69,44.825,1.312,44.76,0.896 M46.859,3.828h-1.506c-0.129,0-0.239-0.094-0.26-0.222l-0.066-0.42l-0.104,0.152
						c-0.327,0.473-1.054,0.632-1.78,0.632c-1.664,0-3.086-1.261-3.363-3.03c-0.143-0.882,0.061-1.725,0.561-2.314
						c0.46-0.541,1.115-0.766,1.897-0.766c1.341,0,2.085,0.862,2.085,0.862l-0.067-0.419c-0.025-0.158,0.098-0.303,0.26-0.303h1.356
						c0.215,0,0.398,0.157,0.432,0.369l0.814,5.157C47.143,3.684,47.02,3.828,46.859,3.828"/>
				</g>
				<g transform="translate(134.4426,19.7234)">
					<path fill="#009CDE" d="M11.877,0.896c-0.146-0.861-0.829-1.438-1.7-1.438c-0.438,0-0.787,0.14-1.012,0.407
						C8.942,0.128,8.859,0.503,8.929,0.922c0.135,0.853,0.83,1.449,1.688,1.449c0.427,0,0.775-0.142,1.004-0.411
						C11.852,1.69,11.942,1.312,11.877,0.896 M13.976,3.828h-1.506c-0.129,0-0.239-0.094-0.259-0.222l-0.065-0.42l-0.106,0.152
						c-0.326,0.473-1.053,0.632-1.78,0.632c-1.664,0-3.086-1.261-3.362-3.03C6.753,0.058,6.958-0.786,7.458-1.375
						C7.918-1.915,8.574-2.14,9.355-2.14c1.342,0,2.086,0.862,2.086,0.862l-0.068-0.419c-0.025-0.158,0.098-0.303,0.259-0.303h1.356
						c0.215,0,0.398,0.157,0.433,0.369l0.814,5.157C14.261,3.684,14.137,3.828,13.976,3.828"/>
				</g>
				<g transform="translate(104.0795,26.9523)">
					<path fill="#003087" d="M29.925-3.401h-1.514c-0.145,0-0.281-0.072-0.362-0.192l-2.089-3.076l-0.885,2.955
						c-0.056,0.185-0.226,0.312-0.419,0.312h-1.489c-0.18,0-0.306-0.177-0.248-0.347l1.667-4.893l-1.568-2.213
						c-0.123-0.174,0.001-0.414,0.214-0.414h1.512c0.143,0,0.278,0.07,0.359,0.188l5.035,7.268
						C30.261-3.638,30.136-3.401,29.925-3.401"/>
				</g>
				<g transform="translate(143.996,33.5807)">
					<path fill="#009CDE" d="M6.198-7.341l-1.291-8.214c-0.025-0.159,0.098-0.303,0.259-0.303h1.299
						c0.214,0,0.398,0.157,0.431,0.369L8.17-7.422c0.024,0.159-0.099,0.303-0.26,0.303H6.456C6.327-7.119,6.218-7.214,6.198-7.341"
						/>
				</g>
				<g transform="translate(32.4187,40.9816)">
					<path fill="#003087" d="M72.521-11.74c-0.679,0.774-1.906,1.106-3.476,1.106h-4.557c-0.321,0-0.594-0.234-0.645-0.551
						l-1.897-12.033c-0.038-0.237,0.145-0.451,0.387-0.451h2.812l0.707,4.481l-0.022-0.141c0.05,0.316,0.321,0.55,0.642,0.55h1.337
						c2.626,0,4.682,1.066,5.282,4.153c0.019,0.091,0.034,0.18,0.047,0.267C73.318-13.22,73.138-12.443,72.521-11.74"/>
				</g>
				<g transform="translate(17.8489,34.4853)">
					<path fill="#003087" d="M81.182-7.879c0.03,0.19,0.152,0.347,0.316,0.427c0.075,0.035,0.158,0.055,0.246,0.055h3.573
						c0.423,0,0.817-0.028,1.178-0.086C86.599-7.5,86.7-7.519,86.797-7.541c0.097-0.021,0.192-0.046,0.283-0.072
						c0.046-0.014,0.091-0.027,0.135-0.041c0.178-0.06,0.343-0.129,0.495-0.209c0.178,1.141-0.002,1.917-0.619,2.62
						c-0.679,0.774-1.906,1.106-3.476,1.106h-4.558c-0.32,0-0.593-0.234-0.644-0.551l-1.897-12.033
						c-0.038-0.237,0.145-0.452,0.386-0.452h2.814l0.706,4.481L81.182-7.879z"/>
				</g>
				<g transform="translate(33.9429,34.5226)">
					<path fill="#009CDE" d="M71.616-7.901L71.616-7.901c-0.014-0.087-0.029-0.175-0.047-0.267c-0.6-3.086-2.656-4.153-5.282-4.153
						h-1.338c-0.321,0-0.592-0.234-0.641-0.55l-0.684-4.341l-0.195-1.232c-0.032-0.208,0.128-0.395,0.339-0.395h2.37
						c0.281,0,0.52,0.205,0.564,0.481l0.023,0.121l0.447,2.832l0.029,0.157c0.044,0.277,0.283,0.481,0.563,0.481h0.355
						c2.297,0,4.096,0.933,4.621,3.633c0.22,1.128,0.106,2.07-0.474,2.732C72.089-8.202,71.87-8.036,71.616-7.901"/>
				</g>
				<g transform="translate(32.3922,35.1407)">
					<path fill="#012169" d="M72.537-8.269c-0.091,0.027-0.186,0.051-0.283,0.073c-0.097,0.022-0.198,0.04-0.301,0.057
						c-0.361,0.058-0.755,0.086-1.178,0.086h-3.572c-0.088,0-0.172-0.02-0.247-0.056c-0.165-0.079-0.286-0.235-0.316-0.426
						l-0.759-4.814l-0.023-0.141c0.05,0.316,0.321,0.55,0.641,0.55h1.338c2.626,0,4.682,1.066,5.283,4.153
						c0.018,0.091,0.033,0.18,0.047,0.267c-0.152,0.08-0.317,0.15-0.494,0.208C72.628-8.295,72.583-8.282,72.537-8.269"/>
				</g>
			</g>
		</g>
	</g>
</g>
</svg>
