<?xml version="1.0" encoding="utf-8"?>
<!-- Generator: Adobe Illustrator 16.0.0, SVG Export Plug-In . SVG Version: 6.00 Build 0)  -->
<!DOCTYPE svg PUBLIC "-//W3C//DTD SVG 1.1//EN" "http://www.w3.org/Graphics/SVG/1.1/DTD/svg11.dtd">
<svg version="1.1" id="Layer_1" xmlns="http://www.w3.org/2000/svg" xmlns:xlink="http://www.w3.org/1999/xlink" x="0px" y="0px"
	 width="145.5px" height="41px" viewBox="0 0 145.5 41" enable-background="new 0 0 145.5 41" xml:space="preserve">
<g>
	<path fill="#C8982C" d="M63.72,19.441V15.88h1.763v9.043H63.72v-4.042h-3.262v4.042h-1.763V15.88h1.763v3.562L63.72,19.441
		L63.72,19.441z"/>
	<path fill="#C8982C" d="M70.825,25.163c-2.758,0-4.474-2.111-4.474-4.773c0-2.687,1.775-4.75,4.474-4.75
		c2.698,0,4.474,2.063,4.474,4.75C75.298,23.052,73.583,25.163,70.825,25.163z M70.825,17.379c-1.667,0-2.65,1.476-2.65,2.938
		c0,1.392,0.695,3.106,2.65,3.106c1.955,0,2.649-1.715,2.649-3.106C73.475,18.854,72.492,17.379,70.825,17.379z"/>
	<path fill="#C8982C" d="M82.919,19.31h-0.022l-2.051,5.733h-0.613l-1.979-5.733H78.23l-0.805,5.613h-1.773l1.522-9.283h1.246
		l2.231,5.961l2.135-5.961h1.271l1.354,9.283h-1.774L82.919,19.31z"/>
	<path fill="#C8982C" d="M87.962,17.415v1.991h2.808v1.535h-2.808v2.446h2.914v1.535h-4.678V15.88h4.678v1.535H87.962z"/>
</g>
<path fill="none" stroke="#21437A" stroke-width="3" stroke-miterlimit="10" d="M144.041,32.461c0,3.917-4.699,7.09-10.495,7.09
	H11.955c-5.796,0-10.496-3.173-10.496-7.09V8.538c0-3.916,4.7-7.089,10.496-7.089h121.591c5.796,0,10.495,3.173,10.495,7.089V32.461
	z"/>
</svg>
