<?xml version="1.0" encoding="utf-8"?>
<!-- Generator: Adobe Illustrator 16.0.0, SVG Export Plug-In . SVG Version: 6.00 Build 0)  -->
<!DOCTYPE svg PUBLIC "-//W3C//DTD SVG 1.1//EN" "http://www.w3.org/Graphics/SVG/1.1/DTD/svg11.dtd">
<svg version="1.1" id="Layer_1" xmlns="http://www.w3.org/2000/svg" xmlns:xlink="http://www.w3.org/1999/xlink" x="0px" y="0px"
	 width="145.583px" height="41.101px" viewBox="-1.373 0.09 145.583 41.101" enable-background="new -1.373 0.09 145.583 41.101"
	 xml:space="preserve">
<path fill="none" stroke="#C8982C" stroke-width="3" stroke-miterlimit="10" d="M142.71,32.602c0,3.916-4.699,7.09-10.496,7.09
	H10.623c-5.796,0-10.496-3.174-10.496-7.09V8.679c0-3.916,4.7-7.089,10.496-7.089h121.591c5.797,0,10.495,3.173,10.495,7.089
	L142.71,32.602L142.71,32.602z"/>
<g>
	<path fill="#C8982C" d="M44.817,24.631v-8.004h3.516c0.785,0,1.418,0.232,1.898,0.697s0.721,1.068,0.721,1.811
		c0,0.344-0.053,0.658-0.158,0.943s-0.249,0.522-0.431,0.712s-0.383,0.343-0.604,0.46s-0.456,0.195-0.706,0.234l1.957,3.146h-1.617
		l-1.775-2.988h-1.395v2.988H44.817z M46.224,20.406h1.922c0.398,0,0.726-0.117,0.981-0.352s0.384-0.541,0.384-0.92
		s-0.128-0.686-0.384-0.92s-0.583-0.352-0.981-0.352h-1.922V20.406z"/>
	<path fill="#C8982C" d="M52.353,24.631v-8.004h5.484v1.236h-4.078v2.074h3.996v1.236h-3.996v2.221h4.078v1.236H52.353z"/>
	<path fill="#C8982C" d="M58.915,20.635c0-0.613,0.11-1.181,0.331-1.702s0.521-0.959,0.899-1.313s0.825-0.63,1.339-0.829
		s1.058-0.299,1.632-0.299c1.371,0,2.447,0.555,3.229,1.663l-1.154,0.657c-0.223-0.32-0.516-0.58-0.879-0.782
		c-0.363-0.201-0.762-0.302-1.195-0.302c-0.793,0-1.451,0.274-1.975,0.823s-0.785,1.243-0.785,2.084s0.262,1.537,0.785,2.089
		s1.182,0.828,1.975,0.828c0.375,0,0.732-0.072,1.072-0.218s0.613-0.314,0.82-0.507v-1.256h-2.385v-1.236h3.791v3.011
		c-0.41,0.453-0.894,0.808-1.45,1.062s-1.173,0.381-1.849,0.381c-0.773,0-1.478-0.17-2.112-0.51s-1.142-0.828-1.521-1.465
		S58.915,21.451,58.915,20.635z"/>
	<path fill="#C8982C" d="M67.874,24.631v-8.004h1.406v8.004H67.874z"/>
	<path fill="#C8982C" d="M70.464,23.512l0.779-1.081c0.305,0.325,0.674,0.591,1.107,0.799s0.91,0.312,1.43,0.312
		c0.535,0,0.937-0.109,1.204-0.327s0.401-0.476,0.401-0.774c0-0.181-0.054-0.338-0.161-0.471c-0.107-0.134-0.251-0.243-0.431-0.327
		s-0.387-0.159-0.619-0.224c-0.233-0.064-0.478-0.132-0.733-0.202c-0.256-0.071-0.514-0.143-0.775-0.215
		c-0.261-0.072-0.508-0.168-0.74-0.287s-0.438-0.259-0.618-0.417s-0.323-0.36-0.431-0.607c-0.107-0.246-0.161-0.527-0.161-0.845
		c0-0.667,0.271-1.223,0.812-1.668c0.541-0.444,1.243-0.667,2.106-0.667c1.238,0,2.242,0.369,3.01,1.108l-0.809,1.045
		c-0.302-0.302-0.654-0.53-1.06-0.685c-0.405-0.155-0.824-0.232-1.259-0.232c-0.41,0-0.739,0.092-0.987,0.274
		c-0.248,0.184-0.372,0.427-0.372,0.729c0,0.157,0.053,0.297,0.157,0.417c0.105,0.12,0.248,0.218,0.427,0.295
		s0.385,0.147,0.618,0.214c0.233,0.065,0.479,0.135,0.736,0.207c0.257,0.073,0.515,0.146,0.772,0.218
		c0.257,0.073,0.504,0.172,0.74,0.297c0.237,0.125,0.446,0.27,0.627,0.434c0.182,0.164,0.325,0.372,0.432,0.624
		c0.106,0.251,0.16,0.537,0.16,0.857c0,0.339-0.062,0.654-0.186,0.946c-0.123,0.292-0.308,0.553-0.553,0.782
		c-0.245,0.23-0.57,0.41-0.977,0.541c-0.405,0.13-0.871,0.195-1.396,0.195C72.345,24.777,71.261,24.355,70.464,23.512z"/>
	<path fill="#C8982C" d="M77.472,17.863v-1.236h6.252v1.236h-2.42v6.768h-1.406v-6.768H77.472z"/>
	<path fill="#C8982C" d="M84.907,24.631v-8.004h5.484v1.236h-4.078v2.074h3.996v1.236h-3.996v2.221h4.078v1.236H84.907z"/>
	<path fill="#C8982C" d="M91.827,24.631v-8.004h3.516c0.785,0,1.418,0.232,1.898,0.697s0.721,1.068,0.721,1.811
		c0,0.344-0.053,0.658-0.158,0.943s-0.249,0.522-0.431,0.712s-0.383,0.343-0.604,0.46s-0.456,0.195-0.706,0.234l1.957,3.146h-1.617
		l-1.775-2.988h-1.395v2.988H91.827z M93.233,20.406h1.922c0.398,0,0.726-0.117,0.981-0.352s0.384-0.541,0.384-0.92
		s-0.128-0.686-0.384-0.92s-0.583-0.352-0.981-0.352h-1.922V20.406z"/>
</g>
</svg>
