<?xml version="1.0" encoding="utf-8"?>
<!-- Generator: Adobe Illustrator 16.0.0, SVG Export Plug-In . SVG Version: 6.00 Build 0)  -->
<!DOCTYPE svg PUBLIC "-//W3C//DTD SVG 1.1//EN" "http://www.w3.org/Graphics/SVG/1.1/DTD/svg11.dtd">
<svg version="1.1" xmlns="http://www.w3.org/2000/svg" xmlns:xlink="http://www.w3.org/1999/xlink" x="0px" y="0px"
	 width="36.374px" height="36.374px" viewBox="224.439 224.65 36.374 36.374" enable-background="new 224.439 224.65 36.374 36.374"
	 xml:space="preserve">
<g id="Capa_1">
	<g>
		<g>
			<path fill="#C7972C" d="M251.72,238.291c0-7.533-6.106-13.64-13.64-13.64c-7.533,0-13.64,6.107-13.64,13.64
				s6.107,13.64,13.64,13.64C245.613,251.931,251.72,245.823,251.72,238.291z M238.08,248.521c-5.641,0-10.23-4.589-10.23-10.23
				s4.589-10.23,10.23-10.23s10.231,4.589,10.231,10.23S243.721,248.521,238.08,248.521z"/>
			<path fill="#C7972C" d="M259.813,255.204l-8.345-8.346c-1.243,1.934-2.889,3.578-4.822,4.821l8.346,8.346
				c1.332,1.332,3.492,1.332,4.821,0C261.146,258.695,261.146,256.535,259.813,255.204z"/>
		</g>
	</g>
</g>
<g id="_x3C_Layer_x3E_">
</g>
</svg>
