<?xml version="1.0" encoding="utf-8"?>
<!-- Generator: Adobe Illustrator 16.0.0, SVG Export Plug-In . SVG Version: 6.00 Build 0)  -->
<!DOCTYPE svg PUBLIC "-//W3C//DTD SVG 1.1 Tiny//EN" "http://www.w3.org/Graphics/SVG/1.1/DTD/svg11-tiny.dtd">
<svg version="1.1" baseProfile="tiny" id="Layer_1" xmlns="http://www.w3.org/2000/svg" xmlns:xlink="http://www.w3.org/1999/xlink"
	 x="0px" y="0px" width="40px" height="40px" viewBox="0 0 40 40" xml:space="preserve">
<g>
	<g id="Layer_1_1_">
		<path fill="#C7972C" d="M19.959,0C8.937,0,0,8.937,0,19.959c0,10.178,7.619,18.577,17.464,19.804h4.991
			c9.846-1.228,17.464-9.626,17.464-19.804C39.919,8.937,30.981,0,19.959,0z"/>
	</g>
	<g id="Capa_1">
		<g>
			<g>
				<path fill="#162A53" d="M19.959,22.874l-2.592-2.269l-7.411,6.353c0.269,0.251,0.633,0.407,1.034,0.407h17.938
					c0.399,0,0.761-0.156,1.029-0.407l-7.406-6.353L19.959,22.874z"/>
				<path fill="#162A53" d="M29.963,12.804c-0.27-0.251-0.633-0.405-1.033-0.405H10.991c-0.399,0-0.762,0.156-1.031,0.409l10,8.57
					L29.963,12.804z"/>
				<polygon fill="#162A53" points="9.483,13.713 9.483,26.146 16.716,20 				"/>
				<polygon fill="#162A53" points="23.202,20 30.435,26.146 30.435,13.708 				"/>
			</g>
		</g>
	</g>
</g>
</svg>
