<?xml version="1.0" encoding="utf-8"?>
<!-- Generator: Adobe Illustrator 16.0.0, SVG Export Plug-In . SVG Version: 6.00 Build 0)  -->
<!DOCTYPE svg PUBLIC "-//W3C//DTD SVG 1.1 Tiny//EN" "http://www.w3.org/Graphics/SVG/1.1/DTD/svg11-tiny.dtd">
<svg version="1.1" baseProfile="tiny" id="Layer_1" xmlns="http://www.w3.org/2000/svg" xmlns:xlink="http://www.w3.org/1999/xlink"
	 x="0px" y="0px" width="40px" height="40px" viewBox="0 0 40 40" xml:space="preserve">
<path fill="#162A53" d="M17.538,39.931h5.011l3.069-10.862c0,0,5.067-2.534,5.349-2.816c0.282-0.282,1.407-4.974,1.407-5.255
	s0.376-4.692,0-5.63c-0.375-0.938-2.72-7.601-2.72-7.601L17.538,9.267l-5.433,4.317c0,0-2.721,7.601-2.721,7.976
	c0,0.376,0.376,6.008,0.751,6.476C10.51,28.504,17.538,39.931,17.538,39.931z"/>
<g>
	<path fill="#C7972C" d="M20.043,0c11.069,0,20.043,8.974,20.043,20.043c0,10.221-7.65,18.654-17.537,19.888V25.054h6.89
		l0.625-5.011h-7.515v-2.505c0-1.384,1.122-2.506,2.506-2.506h5.009v-5.01h-5.009c-4.15,0-7.516,3.365-7.516,7.516v2.505h-3.759
		v5.011h3.758v9.903v4.497v0.477C7.651,38.697,0,30.264,0,20.043C0,8.974,8.974,0,20.043,0z"/>
</g>
</svg>
