<?xml version="1.0" encoding="utf-8"?>
<!-- Generator: Adobe Illustrator 16.0.0, SVG Export Plug-In . SVG Version: 6.00 Build 0)  -->
<!DOCTYPE svg PUBLIC "-//W3C//DTD SVG 1.1 Tiny//EN" "http://www.w3.org/Graphics/SVG/1.1/DTD/svg11-tiny.dtd">
<svg version="1.1" baseProfile="tiny" id="Layer_1" xmlns="http://www.w3.org/2000/svg" xmlns:xlink="http://www.w3.org/1999/xlink"
	 x="0px" y="0px" width="40px" height="40px" viewBox="0 0 40 40" xml:space="preserve">
<polygon fill="#172B53" points="9.924,34.185 21.325,36.427 28.677,35.305 32.414,32.689 32.914,24.652 32.104,15.12 28.554,10.49 
	19.794,4.466 12.479,5.837 8.18,8.58 5.875,20.914 5.314,28.826 "/>
<g>
	<g>
		<polygon fill="#C7972D" points="10.584,21.448 12.166,21.448 12.166,30.009 13.662,30.009 13.662,21.448 15.272,21.448 
			15.272,20.046 10.584,20.046 		"/>
		<path fill="#C7972D" d="M23.234,22.494c-0.493,0-0.956,0.271-1.389,0.805v-3.254h-1.345v9.964h1.345v-0.72
			c0.449,0.556,0.911,0.822,1.389,0.822c0.535,0,0.895-0.283,1.076-0.835c0.089-0.315,0.136-0.81,0.136-1.498v-2.953
			c0-0.703-0.046-1.194-0.136-1.491C24.129,22.775,23.77,22.494,23.234,22.494z M23.1,27.885c0,0.672-0.197,1.002-0.584,1.002
			c-0.222,0-0.447-0.104-0.672-0.33v-4.524c0.225-0.221,0.45-0.329,0.672-0.329c0.387,0,0.584,0.345,0.584,1.014V27.885z"/>
		<path fill="#C7972D" d="M17.991,28.257c-0.298,0.422-0.581,0.63-0.85,0.63c-0.181,0-0.282-0.104-0.315-0.314
			c-0.012-0.043-0.012-0.208-0.012-0.522v-5.466h-1.346v5.868c0,0.525,0.045,0.878,0.119,1.104c0.136,0.377,0.434,0.553,0.867,0.553
			c0.494,0,1.002-0.298,1.537-0.911v0.81h1.346v-7.423h-1.346V28.257z"/>
		<path fill="#C7972D" d="M19.146,15.728c0.438,0,0.648-0.347,0.648-1.042V11.53c0-0.693-0.211-1.04-0.648-1.04
			c-0.438,0-0.649,0.348-0.649,1.04v3.156C18.497,15.38,18.708,15.728,19.146,15.728z"/>
		<path fill="#C7972D" d="M20.053,0.028c-11.018,0-19.948,8.931-19.948,19.948c0,11.016,8.931,19.948,19.948,19.948
			C31.069,39.924,40,30.993,40,19.976C40,8.958,31.069,0.028,20.053,0.028z M22.271,9.358h1.355v5.523c0,0.318,0,0.483,0.017,0.529
			c0.028,0.21,0.135,0.318,0.319,0.318c0.27,0,0.556-0.21,0.858-0.637V9.358h1.359v7.501h-1.359v-0.818
			c-0.54,0.62-1.058,0.922-1.553,0.922c-0.438,0-0.74-0.178-0.876-0.558c-0.075-0.227-0.122-0.586-0.122-1.116L22.271,9.358
			L22.271,9.358z M17.137,11.805c0-0.803,0.136-1.389,0.426-1.768c0.375-0.514,0.904-0.77,1.583-0.77c0.68,0,1.21,0.256,1.585,0.77
			c0.283,0.378,0.421,0.965,0.421,1.768v2.625c0,0.798-0.137,1.389-0.421,1.765c-0.377,0.511-0.906,0.768-1.585,0.768
			c-0.679,0-1.208-0.257-1.583-0.768c-0.29-0.375-0.426-0.967-0.426-1.765V11.805z M13.503,6.793l1.07,3.952L15.6,6.793h1.525
			l-1.813,5.989v4.077h-1.507v-4.076c-0.138-0.723-0.438-1.781-0.922-3.185c-0.317-0.933-0.648-1.871-0.967-2.804H13.503
			L13.503,6.793z M30.79,30.664c-0.272,1.183-1.24,2.057-2.405,2.187c-2.76,0.308-5.551,0.31-8.332,0.308
			c-2.782,0.002-5.575,0-8.334-0.308c-1.166-0.13-2.134-1.004-2.406-2.187c-0.388-1.687-0.388-3.526-0.388-5.263
			c0-1.733,0.004-3.574,0.391-5.259c0.273-1.184,1.24-2.058,2.406-2.188c2.76-0.308,5.553-0.31,8.334-0.308
			c2.781-0.001,5.575,0,8.334,0.308c1.164,0.131,2.134,1.003,2.404,2.188c0.387,1.686,0.386,3.526,0.386,5.259
			C31.179,27.138,31.178,28.978,30.79,30.664z"/>
		<path fill="#C7972D" d="M27.519,22.494c-0.688,0-1.224,0.255-1.611,0.761c-0.283,0.376-0.415,0.955-0.415,1.748v2.601
			c0,0.789,0.146,1.374,0.435,1.745c0.386,0.507,0.921,0.76,1.625,0.76c0.705,0,1.255-0.266,1.626-0.805
			c0.164-0.24,0.271-0.508,0.317-0.807c0.011-0.135,0.024-0.433,0.024-0.867v-0.196h-1.37c0,0.539-0.018,0.839-0.029,0.912
			c-0.075,0.358-0.27,0.539-0.602,0.539c-0.463,0-0.688-0.344-0.688-1.029v-1.318h2.689V25c0-0.792-0.133-1.375-0.414-1.746
			C28.73,22.749,28.193,22.494,27.519,22.494z M28.178,25.422h-1.347v-0.687c0-0.688,0.226-1.032,0.677-1.032
			c0.443,0,0.67,0.345,0.67,1.032V25.422z"/>
	</g>
</g>
</svg>
